
<svg width="169" height="32" viewBox="0 0 169 32" fill="none" xmlns="http://www.w3.org/2000/svg">
<path d="M0.88 25H3.664V13.832L13.872 25H17.232L6.544 13.224L16.72 2.088H13.616L3.664 13.128V2.12H0.88V25ZM23.9588 25.288C26.4228 25.288 27.9268 24.456 29.1748 22.888V25H31.8308V13.96C31.8308 9.288 28.9188 7.976 25.7188 7.976C22.4868 7.976 19.4468 9.384 19.0948 13.192H21.7508C22.0068 11.144 23.2868 10.184 25.5908 10.184C28.1508 10.184 29.1748 11.304 29.1748 13.96V15.176H26.7748C22.4868 15.176 18.3908 16.488 18.3908 20.36C18.3908 23.784 20.8548 25.288 23.9588 25.288ZM24.2148 23.176C21.8788 23.176 21.0468 22.088 21.0468 20.36C21.0468 17.896 23.5108 17.064 26.8708 17.064H29.1748V19.144C29.1748 21.736 27.0308 23.176 24.2148 23.176ZM36.408 25H39.064V15.816C39.064 11.688 41.208 10.632 44.568 10.472V7.976C41.56 8.072 40.12 9.384 39.064 11.272V8.264H36.408V25ZM54.0185 31.112C58.6905 31.112 61.9865 28.744 62.0185 23.88V8.264H59.3625V10.952C58.4025 9.32 56.6745 7.976 53.8905 7.976C49.2825 7.976 46.0825 11.752 46.0825 16.296V16.52C46.0825 21.128 49.3145 24.456 53.6985 24.456C56.1305 24.456 58.4025 22.92 59.3625 21.288V23.72C59.3625 27.304 57.2825 28.872 53.9865 28.872C51.1385 28.872 49.5385 27.88 49.1545 25.96H46.4345C46.8825 28.776 49.0585 31.112 54.0185 31.112ZM53.9865 22.248C51.1705 22.248 48.8345 20.072 48.8345 16.424V16.168C48.8345 12.648 50.8185 10.184 54.1465 10.184C57.4105 10.184 59.4585 12.36 59.4585 16.104V16.328C59.4585 20.072 57.0905 22.248 53.9865 22.248ZM73.729 23.08C70.337 23.08 68.257 20.584 68.257 16.776V16.52C68.257 12.68 70.369 10.184 73.729 10.184C77.057 10.184 79.201 12.68 79.201 16.552V16.776C79.201 20.552 77.089 23.08 73.729 23.08ZM73.697 25.288C78.465 25.288 81.953 21.8 81.953 16.744V16.488C81.953 11.464 78.465 7.976 73.729 7.976C68.993 7.976 65.505 11.496 65.505 16.52V16.776C65.505 21.672 68.929 25.288 73.697 25.288ZM85.2015 25H90.3535V16.68H93.2655C98.4815 16.68 101.842 14.376 101.842 9.544V9.416C101.842 4.584 98.6735 2.12 93.1055 2.12H85.2015V25ZM90.3535 13.064V6.056H92.9775C95.4415 6.056 96.8495 7.016 96.8495 9.448V9.576C96.8495 11.848 95.5055 13.064 92.9775 13.064H90.3535ZM104.177 25H108.817V16.616C108.817 13.416 110.801 12.296 114.225 12.328V8.008C111.505 8.04 109.873 9.224 108.817 11.464V8.264H104.177V25ZM120.83 25.352C123.454 25.352 124.926 24.328 125.886 22.984V25H130.398V14.088C130.398 9.544 127.486 7.88 123.39 7.88C119.294 7.88 116.158 9.64 115.87 13.608H120.254C120.446 12.168 121.278 11.24 123.102 11.24C125.214 11.24 125.822 12.328 125.822 14.312V14.984H123.934C118.814 14.984 115.23 16.456 115.23 20.36C115.23 23.88 117.79 25.352 120.83 25.352ZM122.206 22.12C120.51 22.12 119.774 21.32 119.774 20.104C119.774 18.312 121.342 17.736 124.03 17.736H125.822V19.144C125.822 21 124.254 22.12 122.206 22.12ZM139.853 25.32C141.101 25.32 142.029 25.096 142.669 24.872V21.288C142.125 21.512 141.613 21.608 140.909 21.608C139.725 21.608 139.053 20.968 139.053 19.624V11.56H142.573V8.264H139.053V4.648H134.445V8.264H132.301V11.56H134.445V20.04C134.445 23.528 136.333 25.32 139.853 25.32ZM145.291 25H149.899V8.264H145.291V25ZM147.563 5.992C149.067 5.992 150.219 4.904 150.219 3.464C150.219 2.024 149.067 0.935999 147.563 0.935999C146.091 0.935999 144.939 2.024 144.939 3.464C144.939 4.904 146.091 5.992 147.563 5.992ZM153.523 25H158.163V17.096L163.699 25H168.947L162.387 15.88L168.467 8.264H163.539L158.163 15.336V0.679998H153.523V25Z" fill="black"/>
</svg>
